<svg width="131" height="12" viewBox="0 0 131 12" fill="none" xmlns="http://www.w3.org/2000/svg">
<path d="M1.50674 9.37083V0.796787H0V9.37083H1.50674ZM9.21817 9.37083V5.28043C9.21817 4.50425 9.02 3.88949 8.62523 3.43614C8.22888 2.98452 7.68627 2.75613 6.99738 2.75613C5.97192 2.7733 5.25158 3.20089 4.84108 4.04232V2.81623H3.38309V9.36912H4.84108V6.14762C4.84108 5.60155 4.97948 5.15164 5.26259 4.80133C5.54254 4.4493 5.92631 4.26899 6.4123 4.26212C6.8228 4.26212 7.15152 4.39435 7.39058 4.6588C7.62965 4.92497 7.75075 5.28558 7.75075 5.74236V9.3674H9.21975" fill="#030E1D"/>
<path d="M14.3722 8.96729L14.0357 7.76867C13.6896 7.94726 13.405 8.03656 13.1816 8.03656L12.7098 7.84767C12.6044 7.72059 12.5541 7.50594 12.5541 7.20371V4.25182H14.27V3.08755H12.5541V1.28619H11.1071V3.08755H10.2531L10.2641 4.25182H11.1071V7.48705C11.1071 8.13272 11.2707 8.61869 11.5994 8.95012C11.9297 9.27982 12.3543 9.44467 12.8702 9.44467C13.3861 9.44467 13.8957 9.28497 14.3738 8.96729" fill="#030E1D"/>
<path d="M16.3807 5.5861C16.4483 5.09497 16.6245 4.71032 16.9155 4.42869C17.2033 4.14535 17.5603 4.00454 17.9865 4.00454C18.4426 4.00454 18.8091 4.14879 19.0875 4.43385C19.3643 4.7189 19.509 5.10356 19.5263 5.58438H16.3807M20.8616 6.17166C20.8616 5.09325 20.6194 4.25697 20.1365 3.65938C19.6553 3.06351 18.9334 2.76643 17.9771 2.76643C17.3873 2.76643 16.8573 2.90724 16.3933 3.18887C15.9309 3.47049 15.5691 3.86373 15.3112 4.37203C15.0533 4.8786 14.9243 5.4573 14.9243 6.11156C14.9243 6.76582 15.0517 7.3428 15.3065 7.84595C15.5613 8.34909 15.9214 8.7389 16.3886 9.01537C16.8557 9.29184 17.3983 9.43094 18.0101 9.43094C18.5339 9.43094 19.012 9.33306 19.4414 9.13729C19.8739 8.93981 20.2372 8.66334 20.5376 8.30444L19.7512 7.40978C19.542 7.64675 19.2982 7.82878 19.0151 7.95413C18.7352 8.08121 18.4426 8.14474 18.1344 8.14474C17.694 8.14474 17.3212 8.0108 17.0177 7.74635C16.7173 7.4819 16.516 7.11613 16.4184 6.64905H20.8537L20.8648 6.17166M23.6392 9.3674V0.281623H22.178V9.37083H23.6392M27.0286 9.37083V0.281623H25.5674V9.37083H27.0286ZM30.3613 9.37083V2.81795H28.9033V9.37083H30.3613ZM30.4494 0.954771C30.4494 0.678299 30.3707 0.44991 30.215 0.269603L29.619 0L29.026 0.269603C28.8672 0.448193 28.7901 0.678299 28.7901 0.954771L29.026 1.62964L29.619 1.89924L30.215 1.62964L30.4494 0.954771ZM33.0005 5.9158C33.0083 5.36973 33.1593 4.91982 33.4534 4.56951C33.7491 4.21748 34.1329 4.04232 34.6063 4.04232C35.0797 4.04232 35.4603 4.21748 35.756 4.56264C36.0517 4.90951 36.1995 5.36114 36.1995 5.9158C36.1995 6.47046 36.0517 6.92209 35.756 7.27068C35.4603 7.61756 35.0766 7.791 34.6063 7.791C34.136 7.791 33.7491 7.61756 33.4534 7.27068C33.1577 6.9238 33.0068 6.47218 33.0005 5.9158ZM37.6607 8.74577V2.81795H36.1995V3.79848C35.9982 3.47221 35.7356 3.21806 35.41 3.03947C35.0813 2.85916 34.7117 2.76987 34.2917 2.76987C33.768 2.76987 33.304 2.90037 32.8982 3.16139C32.4956 3.42412 32.181 3.78817 31.9561 4.25869C31.7328 4.72749 31.6211 5.26841 31.6211 5.88146C31.6211 6.4945 31.7344 7.05088 31.9561 7.52998C32.181 8.00737 32.4956 8.37828 32.8982 8.64445C33.304 8.9089 33.768 9.04113 34.2917 9.04113C34.7164 9.04113 35.0923 8.95183 35.4147 8.7784C35.734 8.60152 35.9967 8.34738 36.1995 8.0108V8.78355C36.1995 9.30558 36.0407 9.71771 35.7246 10.0199C35.4053 10.3222 34.9775 10.4733 34.438 10.4733C33.7554 10.4733 33.1326 10.2449 32.5632 9.78812L31.9797 10.9404C32.7567 11.5208 33.6013 11.811 34.5151 11.811C35.1426 11.811 35.6962 11.6856 36.1712 11.4366C36.6462 11.1859 37.0127 10.8305 37.269 10.3703C37.5301 9.90832 37.6591 9.3674 37.6591 8.74749M40.2825 5.5861C40.3502 5.09497 40.5279 4.71032 40.8173 4.42869C41.1051 4.14535 41.4621 4.00454 41.8899 4.00454C42.346 4.00454 42.7109 4.14879 42.9909 4.43385C43.2677 4.7189 43.4124 5.10356 43.4297 5.58438H40.2841M44.765 6.17166C44.765 5.09325 44.5228 4.25697 44.0399 3.65938C43.5587 3.06351 42.8368 2.76643 41.8805 2.76643C41.2891 2.76643 40.7607 2.90724 40.2951 3.18887C39.8343 3.47049 39.471 3.86373 39.213 4.37203C38.9551 4.8786 38.8261 5.4573 38.8261 6.11156C38.8261 6.76582 38.9535 7.3428 39.2083 7.84595C39.4631 8.34909 39.8233 8.7389 40.2904 9.01537C40.7575 9.29184 41.3001 9.43094 41.9119 9.43094C42.4357 9.43094 42.9138 9.33306 43.3432 9.13729C43.7757 8.93981 44.1375 8.66334 44.4394 8.30444L43.6515 7.40978C43.4423 7.64675 43.1985 7.82878 42.9154 7.95413C42.637 8.08121 42.3429 8.14474 42.0346 8.14474C41.5942 8.14474 41.2199 8.0108 40.9179 7.74635C40.616 7.4819 40.4146 7.11613 40.3187 6.64905H44.7524L44.7634 6.17166M51.8583 9.3674V5.277C51.8583 4.50082 51.6602 3.88605 51.2654 3.43271C50.8675 2.98108 50.3264 2.75269 49.6375 2.75269C48.6121 2.76987 47.8933 3.19745 47.4812 4.03889V2.8128H46.0232V9.36568H47.4812V6.14419C47.4812 5.59812 47.6212 5.14821 47.9027 4.79789C48.1827 4.44587 48.5665 4.26556 49.0525 4.25869C49.463 4.25869 49.7901 4.39092 50.0307 4.65537C50.2698 4.92153 50.3909 5.28215 50.3909 5.73893V9.36397H51.8599" fill="#030E1D"/>
<path d="M58.582 8.10868L57.6745 7.28785C57.3144 7.80302 56.7749 8.05888 56.0577 8.05888C55.5686 8.05888 55.1769 7.88029 54.8734 7.52139C54.5698 7.16078 54.4173 6.68683 54.4173 6.09954C54.4173 5.51225 54.5698 5.06234 54.8734 4.70345C55.1769 4.34455 55.5686 4.16424 56.0577 4.16424C56.6994 4.16424 57.2231 4.40465 57.6289 4.88547L58.516 3.96676C58.247 3.58382 57.8979 3.28675 57.4654 3.07896C57.036 2.87118 56.5468 2.76643 56.0011 2.76643C55.4034 2.76643 54.8734 2.90552 54.411 3.182C53.9517 3.4619 53.5916 3.85171 53.3336 4.36C53.0757 4.86487 52.9467 5.44872 52.9467 6.10985C52.9467 6.77097 53.0741 7.34109 53.3289 7.84423C53.5837 8.34737 53.9407 8.73718 54.4 9.01365C54.8592 9.29012 55.3861 9.42922 55.9775 9.42922C56.5689 9.42922 57.0769 9.31588 57.5157 9.08749C57.9561 8.8591 58.3147 8.53112 58.582 8.10696" fill="#030E1D"/>
<path d="M60.5245 5.58609C60.5921 5.09497 60.7682 4.71032 61.0592 4.42869C61.347 4.14535 61.704 4.00454 62.1319 4.00454C62.588 4.00454 62.9529 4.14879 63.2328 4.43385C63.5096 4.7189 63.6543 5.10356 63.6701 5.58438H60.526M65.0054 6.17166C65.0054 5.09325 64.7631 4.25697 64.2803 3.65938C63.799 3.06351 63.0771 2.76643 62.1208 2.76643C61.5295 2.76643 61.001 2.90724 60.537 3.18887C60.0746 3.47049 59.7129 3.86373 59.4549 4.37203C59.197 4.8786 59.068 5.4573 59.068 6.11156C59.068 6.76582 59.1939 7.3428 59.4487 7.84595C59.7034 8.34909 60.0636 8.7389 60.5307 9.01537C60.9979 9.29184 61.5405 9.43094 62.1523 9.43094C62.676 9.43094 63.1542 9.33305 63.5835 9.13729C64.0161 8.93981 64.3778 8.66334 64.6798 8.30444L63.8918 7.40978C63.6826 7.64675 63.4388 7.82878 63.1557 7.95413C62.8774 8.08121 62.5832 8.14474 62.275 8.14474C61.8346 8.14474 61.4618 8.0108 61.1583 7.74635C60.8579 7.4819 60.655 7.11613 60.5591 6.64905H64.9928L65.0038 6.17166M70.5746 2.2152H72.4809C72.8709 2.20662 73.176 2.29248 73.3962 2.47107C73.6164 2.65138 73.7265 2.90381 73.7265 3.23008C73.7265 3.55635 73.6164 3.82595 73.3962 4.01484C73.176 4.20202 72.8694 4.29647 72.4809 4.29647H70.5746V2.2152ZM70.5746 5.68226H72.4809C72.9621 5.67196 73.3349 5.76812 73.6038 5.96903C73.8744 6.16995 74.0081 6.44642 74.0081 6.79501C74.0081 7.1625 73.8744 7.44927 73.6038 7.65362C73.3349 7.85797 72.9621 7.95585 72.4809 7.94726H70.5746V5.68226ZM75.5698 7.0028C75.5698 6.43096 75.422 5.95358 75.1279 5.57064C74.8322 5.18598 74.4217 4.94214 73.898 4.83567C74.3258 4.72234 74.6608 4.49395 74.903 4.15566C75.1468 3.81565 75.2679 3.41039 75.2679 2.93643C75.2679 2.27359 75.0257 1.75156 74.5428 1.36862C74.0615 0.98568 73.401 0.793353 72.5642 0.793353H69.0695V9.3674H72.6633C73.563 9.3674 74.2723 9.1579 74.7897 8.73718C75.3103 8.31646 75.5714 7.73948 75.5714 7.00451M82.2401 2.81451H80.768L79.2077 7.57978L77.5028 2.81451H75.9882L78.4701 9.25921L78.2892 9.6868C78.1021 10.1281 77.8079 10.3496 77.4132 10.3496L77.0294 10.2689L76.6378 10.0182L76.0102 11.2306L76.7117 11.6771C76.9476 11.7715 77.2103 11.8179 77.5044 11.8179C77.9825 11.8179 78.3962 11.6805 78.7453 11.4074C79.0945 11.1344 79.3603 10.7274 79.549 10.1882L82.2417 2.81451" fill="#030E1D"/>
<path d="M92.8643 7.98504L91.6942 6.80703C91.1642 7.48018 90.502 7.82362 89.714 7.82362C88.2435 7.82362 87.196 6.69541 87.196 5.07608C87.196 3.45675 88.2435 2.32682 89.714 2.32682C90.502 2.32682 91.1642 2.66855 91.6942 3.33311L92.8643 2.1551C92.1204 1.17286 90.9833 0.631935 89.6259 0.631935C87.174 0.631935 85.3495 2.48481 85.3495 5.07437C85.3495 7.66392 87.174 9.51508 89.6118 9.51508C90.9848 9.51508 92.1204 8.97587 92.8643 7.98332" fill="#030E1D"/>
<path d="M95.0773 6.07035C95.0773 4.9284 95.752 4.24152 96.6265 4.24152C97.501 4.24152 98.1678 4.9284 98.1678 6.07035C98.1678 7.2123 97.5041 7.89918 96.6265 7.89918C95.7489 7.89918 95.0773 7.2123 95.0773 6.07035ZM99.9467 6.07035C99.9467 4.08182 98.5532 2.67027 96.6265 2.67027C94.6998 2.67027 93.3 4.08182 93.3 6.07035C93.3 8.05888 94.7045 9.46871 96.6265 9.46871C98.5484 9.46871 99.9467 8.05888 99.9467 6.07035Z" fill="#030E1D"/>
<path d="M104.859 4.43728V2.67027C103.926 2.67027 103.207 3.00169 102.778 3.64049V2.76815H101.101V9.36912H102.858V6.25409C102.858 4.9885 103.496 4.41152 104.467 4.41152L104.86 4.43728" fill="#030E1D"/>
<path d="M107.133 5.49508C107.257 4.6485 107.831 4.12131 108.629 4.12131C109.426 4.12131 109.991 4.66052 110.113 5.49508H107.131M111.765 6.09611C111.765 3.97191 110.392 2.67198 108.616 2.67198C106.84 2.67198 105.389 4.09555 105.389 6.07207C105.389 8.04858 106.751 9.47043 108.842 9.47043C109.932 9.47043 110.777 9.10295 111.337 8.40232L110.404 7.29987C109.989 7.72918 109.527 7.93696 108.885 7.93696C107.963 7.93696 107.322 7.43382 107.152 6.61299H111.73L111.763 6.09782" fill="#030E1D"/>
<path d="M114.677 8.26666C114.677 7.55574 114.193 7.08866 113.588 7.08866C112.982 7.08866 112.494 7.55574 112.494 8.26666C112.494 8.97759 112.977 9.47043 113.588 9.47043C114.198 9.47043 114.677 8.96729 114.677 8.26666Z" fill="#030E1D"/>
<path d="M118.452 6.02227L119.701 2.73209L120.948 6.02227H118.454M124.132 9.37083L120.613 0.783049H118.812L115.302 9.37083H117.169L117.867 7.5317H121.522L122.221 9.37083H124.13" fill="#030E1D"/>
<path d="M126.085 5.86257C126.085 4.89234 126.758 4.24152 127.68 4.24152C128.601 4.24152 129.267 4.89234 129.267 5.86257C129.267 6.83279 128.603 7.4819 127.68 7.4819C126.757 7.4819 126.085 6.83107 126.085 5.86257ZM131 8.26666V2.76986H129.336V3.61645C128.874 2.97936 128.175 2.67198 127.332 2.67198C125.657 2.67198 124.308 3.93757 124.308 5.86428C124.308 7.791 125.656 9.05486 127.332 9.05486C128.122 9.05486 128.786 8.78526 129.245 8.23232V8.51566C129.245 9.70569 128.704 10.3187 127.469 10.3187C126.692 10.3187 125.849 10.0251 125.33 9.57003L124.632 10.9455C125.341 11.5465 126.455 11.8539 127.601 11.8539C129.783 11.8539 130.998 10.7257 130.998 8.2701" fill="#030E1D"/>
</svg>
